<svg width="20" height="20" fill="none" xmlns="http://www.w3.org/2000/svg"><path d="M3.027 8.2a7.243 7.243 0 000 3.6H5.59a17.847 17.847 0 010-3.6H3.027zm.736-1.8h2.111c.24-1.095.585-2.076 1.01-2.893A7.231 7.231 0 003.762 6.4zm13.21 1.8H14.41a17.853 17.853 0 010 3.6h2.563a7.242 7.242 0 000-3.6zm-.736-1.8a7.232 7.232 0 00-3.12-2.893c.424.817.77 1.798 1.009 2.893h2.111zM7.401 8.2a15.988 15.988 0 000 3.6h5.198a15.992 15.992 0 000-3.6H7.401zm.322-1.8h4.554a9.686 9.686 0 00-.705-1.96C11.007 3.312 10.402 2.8 10 2.8c-.403 0-1.007.511-1.572 1.64a9.705 9.705 0 00-.705 1.96zm-3.96 7.2a7.232 7.232 0 003.12 2.893c-.425-.817-.77-1.798-1.009-2.893H3.763zm12.474 0h-2.111c-.24 1.095-.585 2.076-1.01 2.893a7.232 7.232 0 003.121-2.893zm-8.514 0c.183.729.421 1.39.705 1.96.565 1.129 1.17 1.64 1.572 1.64.403 0 1.007-.511 1.572-1.64.284-.57.522-1.231.705-1.96H7.723zM10 19a9 9 0 01-9-9 9 9 0 019-9 9 9 0 019 9 9 9 0 01-9 9z" fill="#FFA300"/></svg>