<svg width="20" height="20" fill="none" xmlns="http://www.w3.org/2000/svg"><path d="M4.777 11.106c2.195 0 3.799-1.504 3.799-4.053C8.576 4.525 6.972 3 4.777 3 2.604 3 1 4.525 1 7.053c0 2.549 1.604 4.053 3.777 4.053zm-1.35 6.706h3.038L16.552 3.188h-3.038L3.427 17.812zm1.35-8.69c-.675 0-1.245-.586-1.245-2.07 0-1.482.57-2.067 1.245-2.067.718 0 1.245.585 1.245 2.068S5.495 9.12 4.777 9.12zM15.202 18C17.396 18 19 16.496 19 13.947c0-2.528-1.604-4.053-3.798-4.053-2.195 0-3.778 1.525-3.778 4.053 0 2.549 1.583 4.053 3.778 4.053zm0-1.985c-.697 0-1.245-.585-1.245-2.068s.548-2.068 1.245-2.068c.696 0 1.245.585 1.245 2.068s-.549 2.068-1.245 2.068z" fill="#FFA300"/></svg>