<svg width="27" height="26" fill="none" xmlns="http://www.w3.org/2000/svg"><g clip-path="url(#clip0_701_602)" fill-rule="evenodd" clip-rule="evenodd" fill="#000"><path d="M7.778 6a1 1 0 00-1 1v9h14V7a1 1 0 00-1-1h-12zm-3 1a3 3 0 013-3h12a3 3 0 013 3v11h-18V7z"/><path d="M5.398 16h16.76l3.801 3.379c1.031.916.383 2.621-.996 2.621H2.593c-1.38 0-2.028-1.705-.997-2.621L5.398 16zm.76 2l-2.25 2h19.74l-2.25-2H6.158z"/></g><defs><clipPath id="clip0_701_602"><path fill="#fff" transform="translate(.778)" d="M0 0h26v26H0z"/></clipPath></defs></svg>