<svg width="20" height="20" fill="none" xmlns="http://www.w3.org/2000/svg"><g clip-path="url(#clip0_6_8426)"><path d="M17.718 9.87c.555-.37.973-.746 1.282-1.08v3.518c0 .797-.673 1.79-2.376 2.64-1.644.822-3.984 1.36-6.624 1.36-2.64 0-4.98-.537-6.624-1.36C1.673 14.099 1 13.106 1 12.309V8.79c.309.334.727.71 1.282 1.08 1.489.993 3.901 1.9 7.718 1.9s6.23-.907 7.718-1.9z" stroke="#000" stroke-width="2"/><path d="M19 7.308c0 .797-.673 1.789-2.376 2.64-1.644.822-3.984 1.36-6.624 1.36-2.64 0-4.98-.537-6.624-1.36C1.673 9.098 1 8.106 1 7.309c0-.798.673-1.79 2.376-2.641C5.02 3.845 7.36 3.307 10 3.307c2.64 0 4.98.538 6.624 1.36C18.327 5.518 19 6.51 19 7.307z" stroke="#000" stroke-width="2"/><path d="M3 14.308l-2 2.666m4-1.333l-2 2.667m14 0l-2-2.667m4 1.333l-2-2.666M5.385 7.692L1.539 6.593m17.092 0l-4.015 1.1" stroke="#000"/><ellipse cx="10" cy="7.308" rx="2" ry="1" fill="#000"/></g><defs><clipPath id="clip0_6_8426"><path fill="#fff" d="M0 0h20v20H0z"/></clipPath></defs></svg>